<svg xmlns="http://www.w3.org/2000/svg" width="1000" height="190" viewBox="0 0 1000 190">
<rect width="1000" height="190" rx="18" fill="#0D1117" stroke="#30363D"/>
<text x="500" y="38" text-anchor="middle" fill="#58A6FF" font-family="Arial,sans-serif" font-size="20" font-weight="700">CORE TECHNOLOGIES</text>
<g font-family="Arial,sans-serif" font-size="15" text-anchor="middle">
<rect x="25" y="55" width="120" height="38" rx="19" fill="#161B22" stroke="#30363D"/><text x="85" y="80" fill="#E6EDF3">Flutter</text><rect x="165" y="55" width="120" height="38" rx="19" fill="#161B22" stroke="#30363D"/><text x="225" y="80" fill="#E6EDF3">Dart</text><rect x="305" y="55" width="120" height="38" rx="19" fill="#161B22" stroke="#30363D"/><text x="365" y="80" fill="#E6EDF3">Laravel</text><rect x="445" y="55" width="120" height="38" rx="19" fill="#161B22" stroke="#30363D"/><text x="505" y="80" fill="#E6EDF3">PHP</text><rect x="585" y="55" width="120" height="38" rx="19" fill="#161B22" stroke="#30363D"/><text x="645" y="80" fill="#E6EDF3">Java</text><rect x="725" y="55" width="120" height="38" rx="19" fill="#161B22" stroke="#30363D"/><text x="785" y="80" fill="#E6EDF3">Kotlin</text><rect x="865" y="55" width="120" height="38" rx="19" fill="#161B22" stroke="#30363D"/><text x="925" y="80" fill="#E6EDF3">Python</text><rect x="25" y="113" width="120" height="38" rx="19" fill="#161B22" stroke="#30363D"/><text x="85" y="138" fill="#E6EDF3">MySQL</text><rect x="165" y="113" width="120" height="38" rx="19" fill="#161B22" stroke="#30363D"/><text x="225" y="138" fill="#E6EDF3">Firebase</text><rect x="305" y="113" width="120" height="38" rx="19" fill="#161B22" stroke="#30363D"/><text x="365" y="138" fill="#E6EDF3">Git</text><rect x="445" y="113" width="120" height="38" rx="19" fill="#161B22" stroke="#30363D"/><text x="505" y="138" fill="#E6EDF3">GitHub Actions</text><rect x="585" y="113" width="120" height="38" rx="19" fill="#161B22" stroke="#30363D"/><text x="645" y="138" fill="#E6EDF3">AWS</text><rect x="725" y="113" width="120" height="38" rx="19" fill="#161B22" stroke="#30363D"/><text x="785" y="138" fill="#E6EDF3">Figma</text><rect x="865" y="113" width="120" height="38" rx="19" fill="#161B22" stroke="#30363D"/><text x="925" y="138" fill="#E6EDF3">Postman</text>
</g></svg>